#!OML:ASF H:\Dans Jumps\Project 1\Capture day 1\Session 1\subject.ASF
:FULLY-SPECIFIED
:DEGREES
311
root 0.767354 16.4787 -15.8785 22.9553 -2.15667 -2.39475
lowerback 13.3637 0.158848 -0.0623406
upperback 7.04932 0.224046 2.263
thorax -0.0970143 0.0629796 2.36207
lowerneck -15.6705 0.910735 -1.21458
upperneck 9.72786 1.80136 -2.36692
head 5.50313 0.650654 -0.386438
rclavicle 1.59028e-015 -1.39149e-015
rhumerus -25.1907 -20.6914 -74.8264
rradius 25.0491
rwrist 33.2542
rhand -17.5155 -25.8744
rfingers 7.12502
rthumb 8.73788 -55.6736
lclavicle 1.59028e-015 -1.39149e-015
lhumerus -24.0259 2.86808 83.8845
lradius 17.4802
lwrist 4.88456
lhand -23.8958 -3.34228
lfingers 7.12502
lthumb 2.57797 26.6219
rfemur -54.2464 -2.27753 21.6568
rtibia 48.6336
rfoot -18.7933 -4.33001
rtoes 3.8983
lfemur -54.3306 10.35 -21.4391
ltibia 48.6845
lfoot -17.5713 9.83331
ltoes -17.0567
312
root 0.766961 16.4541 -15.8873 23.1981 -2.12076 -2.3994
lowerback 13.5231 0.148533 -0.0612918
upperback 7.06401 0.212387 2.27139
thorax -0.166116 0.0572667 2.37222
lowerneck -15.6722 0.920044 -1.21293
upperneck 9.48586 1.81111 -2.39789
head 5.42747 0.656811 -0.395976
rclavicle -2.78299e-015 9.93923e-015
rhumerus -25.3616 -20.7935 -74.73
rradius 24.9616
rwrist 33.3634
rhand -17.4475 -25.8929
rfingers 7.12502
rthumb 8.80357 -55.6893
lclavicle -2.78299e-015 9.93923e-015
lhumerus -24.1402 3.15324 83.8297
lradius 17.2303
lwrist 4.42422
lhand -23.7518 -3.18202
lfingers 7.12502
lthumb 2.71709 26.7804
rfemur -54.7902 -2.26297 21.6776
rtibia 49.0907
rfoot -19.1261 -4.46833
rtoes 3.75123
lfemur -54.8712 10.195 -21.4136
ltibia 49.1665
lfoot -17.887 10.2874
ltoes -16.7549
313
root 0.766345 16.43 -15.8944 23.422 -2.08145 -2.40327
lowerback 13.6796 0.141009 -0.0576085
upperback 7.08204 0.204636 2.28123
thorax -0.230229 0.0534934 2.38192
lowerneck -15.6897 0.926318 -1.21363
upperneck 9.26677 1.81756 -2.42432
head 5.36161 0.661184 -0.403912
rclavicle 2.18663e-015 2.38542e-015
rhumerus -25.529 -20.9409 -74.6134
rradius 24.8489
rwrist 33.5526
rhand -17.4469 -25.8383
rfingers 7.12502
rthumb 8.8041 -55.6346
lclavicle 2.18663e-015 2.38542e-015
lhumerus -24.2366 3.42038 83.7856
lradius 16.9835
lwrist 3.99213
lhand -23.6955 -3.12886
lfingers 7.12502
lthumb 2.77143 26.8329
rfemur -55.2983 -2.24073 21.6929
rtibia 49.5398
rfoot -19.4701 -4.63105
rtoes 3.64017
lfemur -55.3786 10.0444 -21.3855
ltibia 49.6417
lfoot -18.1943 10.7899
ltoes -16.3569
314
root 0.765562 16.4067 -15.8996 23.6258 -2.03898 -2.40789
lowerback 13.8381 0.136179 -0.0514762
upperback 7.10173 0.200755 2.29308
thorax -0.293715 0.0516546 2.39188
lowerneck -15.7247 0.930391 -1.21544
upperneck 9.07687 1.82172 -2.44553
head 5.30776 0.66424 -0.410119
rclavicle -8.94531e-015 7.95139e-015
rhumerus -25.6926 -21.1278 -74.4798
rradius 24.7159
rwrist 33.8065
rhand -17.4781 -25.7348
rfingers 7.12502
rthumb 8.77403 -55.5325
lclavicle -8.94531e-015 7.95139e-015
lhumerus -24.3116 3.67872 83.7484
lradius 16.7326
lwrist 3.57586
lhand -23.713 -3.15424
lfingers 7.12502
lthumb 2.75457 26.8077
rfemur -55.767 -2.21214 21.7051
rtibia 49.978
rfoot -19.8212 -4.82083
rtoes 3.57565
lfemur -55.8498 9.90249 -21.3554
ltibia 50.1063
lfoot -18.4949 11.3214
ltoes -15.9688
315
root 0.764586 16.3844 -15.9029 23.811 -1.99411 -2.41666
lowerback 13.997 0.133831 -0.0418447
upperback 7.12344 0.200588 2.30789
thorax -0.355355 0.0516659 2.40249
lowerneck -15.7678 0.932712 -1.22008
upperneck 8.90641 1.8242 -2.462
head 5.26129 0.666382 -0.41447
rclavicle -7.55382e-015 -8.15017e-015
rhumerus -25.8486 -21.3339 -74.337
rradius 24.5699
rwrist 34.1044
rhand -17.539 -25.5975
rfingers 7.12502
rthumb 8.71524 -55.3976
lclavicle -7.55382e-015 -8.15017e-015
lhumerus -24.3666 3.92755 83.7168
lradius 16.4832
lwrist 3.17231
lhand -23.7868 -3.26065
lfingers 7.12502
lthumb 2.68326 26.7022
rfemur -56.1962 -2.17518 21.7169
rtibia 50.4033
rfoot -20.1761 -5.03006
rtoes 3.60507
lfemur -56.286 9.77121 -21.3199
ltibia 50.5576
lfoot -18.792 11.8474
ltoes -15.6617
316
root 0.763382 16.363 -15.9043 23.9863 -1.94509 -2.42904
lowerback 14.1568 0.13191 -0.0302294
upperback 7.14209 0.201406 2.32509
thorax -0.420631 0.0522157 2.41435
lowerneck -15.8081 0.933814 -1.22949
upperneck 8.74572 1.82501 -2.46883
head 5.21729 0.668142 -0.415168
rclavicle 3.97569e-015 -1.07344e-014
rhumerus -26 -21.5216 -74.2011
rradius 24.433
rwrist 34.3949
rhand -17.5983 -25.4842
rfingers 7.12502
rthumb 8.65804 -55.2866
lclavicle 3.97569e-015 -1.07344e-014
lhumerus -24.4041 4.18337 83.6817
lradius 16.2395
lwrist 2.76087
lhand -23.8513 -3.37786
lfingers 7.12502
lthumb 2.62098 26.5858
rfemur -56.597 -2.13253 21.7309
rtibia 50.813
rfoot -20.5224 -5.26625
rtoes 3.64654
lfemur -56.6972 9.64932 -21.2813
ltibia 50.9919
lfoot -19.0889 12.3367
ltoes -15.4978
317
root 0.761823 16.3424 -15.904 24.1549 -1.88994 -2.44747
lowerback 14.3181 0.129685 -0.0148624
upperback 7.15373 0.202616 2.34593
thorax -0.494065 0.0530826 2.42788
lowerneck -15.8338 0.934788 -1.24053
upperneck 8.58988 1.82534 -2.47206
head 5.17241 0.66993 -0.414566
rclavicle 9.14409e-015 9.34288e-015
rhumerus -26.1464 -21.6708 -74.0816
rradius 24.3167
rwrist 34.6302
rhand -17.6162 -25.4182
rfingers 7.12502
rthumb 8.64069 -55.2214
lclavicle 9.14409e-015 9.34288e-015
lhumerus -24.4347 4.43787 83.6456
lradius 16.0135
lwrist 2.35442
lhand -23.846 -3.44056
lfingers 7.12502
lthumb 2.62609 26.523
rfemur -56.9738 -2.0823 21.7492
rtibia 51.2057
rfoot -20.8586 -5.51279
rtoes 3.70177
lfemur -57.0884 9.53382 -21.235
ltibia 51.4082
lfoot -19.3898 12.7723
ltoes -15.4931
318
root 0.759928 16.3226 -15.9018 24.3188 -1.83114 -2.46777
lowerback 14.4768 0.127726 -4.98579e-005
upperback 7.16059 0.204316 2.36855
thorax -0.57104 0.054205 2.44353
lowerneck -15.8506 0.935701 -1.25247
upperneck 8.43707 1.82526 -2.47205
head 5.127 0.671756 -0.412872
rclavicle -1.59028e-015 -2.52457e-014
rhumerus -26.2818 -21.7674 -73.9886
rradius 24.2314
rwrist 34.7804
rhand -17.574 -25.4219
rfingers 7.12502
rthumb 8.68149 -55.2234
lclavicle -1.59028e-015 -2.52457e-014
lhumerus -24.4576 4.68144 83.612
lradius 15.8144
lwrist 1.95746
lhand -23.8177 -3.47319
lfingers 7.12502
lthumb 2.65345 26.4901
rfemur -57.3306 -2.02526 21.7674
rtibia 51.5806
rfoot -21.1816 -5.75586
rtoes 3.73586
lfemur -57.4601 9.42051 -21.1839
ltibia 51.8053
lfoot -19.6993 13.1511
ltoes -15.5648
319
root 0.757631 16.3037 -15.8981 24.4755 -1.76839 -2.48649
lowerback 14.6312 0.125875 0.0122965
upperback 7.16375 0.206006 2.39185
thorax -0.649604 0.0552973 2.46131
lowerneck -15.8649 0.937322 -1.25577
upperneck 8.29436 1.82531 -2.47849
head 5.08454 0.673341 -0.414568
rclavicle -9.74045e-015 1.07344e-014
rhumerus -26.4035 -21.8303 -73.9165
rradius 24.1658
rwrist 34.8632
rhand -17.4828 -25.4678
rfingers 7.12502
rthumb 8.76945 -55.2656
lclavicle -9.74045e-015 1.07344e-014
lhumerus -24.4789 4.88195 83.5909
lradius 15.6537
lwrist 1.62162
lhand -23.7774 -3.50428
lfingers 7.12502
lthumb 2.69231 26.4585
rfemur -57.6668 -1.96207 21.7815
rtibia 51.9382
rfoot -21.4969 -5.98452
rtoes 3.72349
lfemur -57.8091 9.30413 -21.129
ltibia 52.1838
lfoot -20.0128 13.4956
ltoes -15.6477
320
root 0.754916 16.2856 -15.8927 24.6307 -1.70117 -2.50403
lowerback 14.7722 0.123555 0.0234085
upperback 7.16889 0.206799 2.41469
thorax -0.718818 0.0558732 2.47942
lowerneck -15.877 0.937061 -1.2575
upperneck 8.14981 1.82218 -2.48334
head 5.04114 0.673596 -0.416312
rclavicle -1.09332e-014 9.93923e-015
rhumerus -26.4987 -21.867 -73.8714
rradius 24.1188
rwrist 34.8915
rhand -17.3545 -25.5426
rfingers 7.12502
rthumb 8.89325 -55.3352
lclavicle -1.09332e-014 9.93923e-015
lhumerus -24.4874 5.03321 83.5834
lradius 15.5365
lwrist 1.3554
lhand -23.6811 -3.46174
lfingers 7.12502
lthumb 2.7853 26.4998
rfemur -57.9881 -1.89091 21.7914
rtibia 52.2793
rfoot -21.804 -6.19968
rtoes 3.65701
lfemur -58.1409 9.1813 -21.0678
ltibia 52.5442
lfoot -20.3226 13.8329
ltoes -15.7375
321
root 0.752042 16.2687 -15.8853 24.7805 -1.62625 -2.51712
lowerback 14.9028 0.119055 0.0371437
upperback 7.17115 0.205103 2.43626
thorax -0.785451 0.0553275 2.49507
lowerneck -15.9008 0.935177 -1.2616
upperneck 8.0272 1.81755 -2.48228
head 5.00643 0.673022 -0.415876
rclavicle -7.15625e-015 4.17448e-015
rhumerus -26.5835 -21.9139 -73.8298
rradius 24.0668
rwrist 34.9314
rhand -17.2615 -25.5913
rfingers 7.12502
rthumb 8.98302 -55.3801
lclavicle -7.15625e-015 4.17448e-015
lhumerus -24.4987 5.1124 83.5987
lradius 15.4734
lwrist 1.1957
lhand -23.5906 -3.41286
lfingers 7.12502
lthumb 2.87273 26.5475
rfemur -58.286 -1.82057 21.7949
rtibia 52.6055
rfoot -22.1133 -6.4056
rtoes 3.54954
lfemur -58.4472 9.04778 -21.0029
ltibia 52.8869
lfoot -20.6289 14.1815
ltoes -15.8068
322
root 0.748917 16.2527 -15.8761 24.9265 -1.54822 -2.52664
lowerback 15.0224 0.114045 0.0483949
upperback 7.17156 0.202383 2.45672
thorax -0.848088 0.0542448 2.51111
lowerneck -15.9262 0.93115 -1.25921
upperneck 7.91678 1.80926 -2.48302
head 4.97586 0.670531 -0.417337
rclavicle -4.17448e-015 8.34896e-015
rhumerus -26.6578 -21.9682 -73.792
rradius 24.0165
rwrist 34.9848
rhand -17.1884 -25.6165
rfingers 7.12502
rthumb 9.05351 -55.4022
lclavicle -4.17448e-015 8.34896e-015
lhumerus -24.5009 5.14168 83.6303
lradius 15.4489
lwrist 1.13979
lhand -23.4953 -3.33532
lfingers 7.12502
lthumb 2.96477 26.6238
rfemur -58.5643 -1.74373 21.79
rtibia 52.9181
rfoot -22.4193 -6.62195
rtoes 3.39629
lfemur -58.7313 8.90743 -20.9349
ltibia 53.2123
lfoot -20.9243 14.5462
ltoes -15.8578
